<mxfile host="app.diagrams.net" agent="Mozilla/5.0 (Windows NT 10.0; Win64; x64) AppleWebKit/537.36 (KHTML, like Gecko) Chrome/128.0.0.0 Safari/537.36" version="24.7.8">
  <diagram name="Page-1" id="ZKMSozs6C3TS06lemmrx">
    <mxGraphModel dx="2780" dy="1013" grid="1" gridSize="10" guides="1" tooltips="1" connect="1" arrows="1" fold="1" page="1" pageScale="1" pageWidth="827" pageHeight="1169" math="0" shadow="0">
      <root>
        <mxCell id="0" />
        <mxCell id="1" parent="0" />
        <mxCell id="hdjxA7xfp_-qjUZ7qCTK-1" value="Program" style="swimlane;fontStyle=1;align=center;verticalAlign=top;childLayout=stackLayout;horizontal=1;startSize=26;horizontalStack=0;resizeParent=1;resizeParentMax=0;resizeLast=0;collapsible=1;marginBottom=0;whiteSpace=wrap;html=1;" parent="1" vertex="1">
          <mxGeometry x="870" y="919" width="340" height="190" as="geometry" />
        </mxCell>
        <mxCell id="hdjxA7xfp_-qjUZ7qCTK-2" value="&amp;nbsp;" style="text;strokeColor=none;fillColor=none;align=left;verticalAlign=top;spacingLeft=4;spacingRight=4;overflow=hidden;rotatable=0;points=[[0,0.5],[1,0.5]];portConstraint=eastwest;whiteSpace=wrap;html=1;" parent="hdjxA7xfp_-qjUZ7qCTK-1" vertex="1">
          <mxGeometry y="26" width="340" height="26" as="geometry" />
        </mxCell>
        <mxCell id="hdjxA7xfp_-qjUZ7qCTK-3" value="" style="line;strokeWidth=1;fillColor=none;align=left;verticalAlign=middle;spacingTop=-1;spacingLeft=3;spacingRight=3;rotatable=0;labelPosition=right;points=[];portConstraint=eastwest;strokeColor=inherit;" parent="hdjxA7xfp_-qjUZ7qCTK-1" vertex="1">
          <mxGeometry y="52" width="340" height="8" as="geometry" />
        </mxCell>
        <mxCell id="hdjxA7xfp_-qjUZ7qCTK-4" value="+ Main()&lt;div&gt;+ FindAccount(fromBank : Bank) : Account&lt;/div&gt;&lt;div&gt;+ AddAccount(bank : Bank)&lt;/div&gt;&lt;div&gt;+ ReadUserOption()&lt;/div&gt;&lt;div&gt;+ DoTransfer(bank : Bank)&lt;/div&gt;&lt;div&gt;+ DoDeposit(toBank : Bank)&lt;/div&gt;&lt;div&gt;+ DoWithdraw(fromBank : Bank)&lt;/div&gt;&lt;div&gt;+ DoPrint(bank : Bank)&lt;/div&gt;&lt;div&gt;&lt;br&gt;&lt;/div&gt;" style="text;strokeColor=none;fillColor=none;align=left;verticalAlign=top;spacingLeft=4;spacingRight=4;overflow=hidden;rotatable=0;points=[[0,0.5],[1,0.5]];portConstraint=eastwest;whiteSpace=wrap;html=1;" parent="hdjxA7xfp_-qjUZ7qCTK-1" vertex="1">
          <mxGeometry y="60" width="340" height="130" as="geometry" />
        </mxCell>
        <mxCell id="hdjxA7xfp_-qjUZ7qCTK-5" value="Account" style="swimlane;fontStyle=1;align=center;verticalAlign=top;childLayout=stackLayout;horizontal=1;startSize=26;horizontalStack=0;resizeParent=1;resizeParentMax=0;resizeLast=0;collapsible=1;marginBottom=0;whiteSpace=wrap;html=1;" parent="1" vertex="1">
          <mxGeometry x="1480" y="710" width="330" height="160" as="geometry" />
        </mxCell>
        <mxCell id="hdjxA7xfp_-qjUZ7qCTK-6" value="- _balance : deciaml&lt;div&gt;- _name : string&lt;/div&gt;" style="text;strokeColor=none;fillColor=none;align=left;verticalAlign=top;spacingLeft=4;spacingRight=4;overflow=hidden;rotatable=0;points=[[0,0.5],[1,0.5]];portConstraint=eastwest;whiteSpace=wrap;html=1;" parent="hdjxA7xfp_-qjUZ7qCTK-5" vertex="1">
          <mxGeometry y="26" width="330" height="44" as="geometry" />
        </mxCell>
        <mxCell id="hdjxA7xfp_-qjUZ7qCTK-7" value="" style="line;strokeWidth=1;fillColor=none;align=left;verticalAlign=middle;spacingTop=-1;spacingLeft=3;spacingRight=3;rotatable=0;labelPosition=right;points=[];portConstraint=eastwest;strokeColor=inherit;" parent="hdjxA7xfp_-qjUZ7qCTK-5" vertex="1">
          <mxGeometry y="70" width="330" height="8" as="geometry" />
        </mxCell>
        <mxCell id="hdjxA7xfp_-qjUZ7qCTK-8" value="+ Account(name : string, balance : decimal)&lt;div&gt;+ Name : string&amp;lt;&amp;lt;property&amp;gt;&amp;gt;&lt;/div&gt;&lt;div&gt;+ Print()&lt;/div&gt;&lt;div&gt;+ Withdraw(amount : decimal) : bool&lt;/div&gt;&lt;div&gt;+ Deposit(amount : decimal) : bool&lt;/div&gt;" style="text;strokeColor=none;fillColor=none;align=left;verticalAlign=top;spacingLeft=4;spacingRight=4;overflow=hidden;rotatable=0;points=[[0,0.5],[1,0.5]];portConstraint=eastwest;whiteSpace=wrap;html=1;" parent="hdjxA7xfp_-qjUZ7qCTK-5" vertex="1">
          <mxGeometry y="78" width="330" height="82" as="geometry" />
        </mxCell>
        <mxCell id="4W3P1GkmUXlb1_qf7TiF-18" style="edgeStyle=orthogonalEdgeStyle;rounded=0;orthogonalLoop=1;jettySize=auto;html=1;entryX=0.531;entryY=0.995;entryDx=0;entryDy=0;entryPerimeter=0;endArrow=none;endFill=0;startArrow=diamond;startFill=1;strokeWidth=1;startSize=10;" parent="1" source="hdjxA7xfp_-qjUZ7qCTK-9" target="hdjxA7xfp_-qjUZ7qCTK-8" edge="1">
          <mxGeometry relative="1" as="geometry">
            <mxPoint x="1655" y="880" as="targetPoint" />
          </mxGeometry>
        </mxCell>
        <mxCell id="hdjxA7xfp_-qjUZ7qCTK-9" value="Bank" style="swimlane;fontStyle=1;align=center;verticalAlign=top;childLayout=stackLayout;horizontal=1;startSize=26;horizontalStack=0;resizeParent=1;resizeParentMax=0;resizeLast=0;collapsible=1;marginBottom=0;whiteSpace=wrap;html=1;" parent="1" vertex="1">
          <mxGeometry x="1490" y="1260" width="330" height="150" as="geometry" />
        </mxCell>
        <mxCell id="hdjxA7xfp_-qjUZ7qCTK-10" value="- _accounts : List&amp;lt;Account&amp;gt;&lt;div&gt;- _transactions : List&amp;lt;Transaction&amp;gt;&lt;/div&gt;" style="text;strokeColor=none;fillColor=none;align=left;verticalAlign=top;spacingLeft=4;spacingRight=4;overflow=hidden;rotatable=0;points=[[0,0.5],[1,0.5]];portConstraint=eastwest;whiteSpace=wrap;html=1;" parent="hdjxA7xfp_-qjUZ7qCTK-9" vertex="1">
          <mxGeometry y="26" width="330" height="44" as="geometry" />
        </mxCell>
        <mxCell id="hdjxA7xfp_-qjUZ7qCTK-11" value="" style="line;strokeWidth=1;fillColor=none;align=left;verticalAlign=middle;spacingTop=-1;spacingLeft=3;spacingRight=3;rotatable=0;labelPosition=right;points=[];portConstraint=eastwest;strokeColor=inherit;" parent="hdjxA7xfp_-qjUZ7qCTK-9" vertex="1">
          <mxGeometry y="70" width="330" height="8" as="geometry" />
        </mxCell>
        <mxCell id="hdjxA7xfp_-qjUZ7qCTK-12" value="+ AddAccount(account : Account)&lt;div&gt;+ GetAccount(name : string) : Account&lt;/div&gt;&lt;div&gt;+ ExecuteTransaction(transaction : Transaction)&lt;/div&gt;&lt;div&gt;+ PrintTransactionHistory()&lt;/div&gt;" style="text;strokeColor=none;fillColor=none;align=left;verticalAlign=top;spacingLeft=4;spacingRight=4;overflow=hidden;rotatable=0;points=[[0,0.5],[1,0.5]];portConstraint=eastwest;whiteSpace=wrap;html=1;" parent="hdjxA7xfp_-qjUZ7qCTK-9" vertex="1">
          <mxGeometry y="78" width="330" height="72" as="geometry" />
        </mxCell>
        <mxCell id="hdjxA7xfp_-qjUZ7qCTK-13" value="&lt;div&gt;&amp;lt;&amp;lt;abstract&amp;gt;&amp;gt;&lt;/div&gt;Transaction" style="swimlane;fontStyle=1;align=center;verticalAlign=top;childLayout=stackLayout;horizontal=1;startSize=40;horizontalStack=0;resizeParent=1;resizeParentMax=0;resizeLast=0;collapsible=1;marginBottom=0;whiteSpace=wrap;html=1;" parent="1" vertex="1">
          <mxGeometry x="-413" y="870" width="330" height="280" as="geometry" />
        </mxCell>
        <mxCell id="hdjxA7xfp_-qjUZ7qCTK-14" value="- _amount : deciaml&lt;div&gt;- _executed : bool&lt;/div&gt;&lt;div&gt;- _reversed : bool&lt;/div&gt;&lt;div&gt;- _dateStamp : DateTime&lt;/div&gt;" style="text;strokeColor=none;fillColor=none;align=left;verticalAlign=top;spacingLeft=4;spacingRight=4;overflow=hidden;rotatable=0;points=[[0,0.5],[1,0.5]];portConstraint=eastwest;whiteSpace=wrap;html=1;" parent="hdjxA7xfp_-qjUZ7qCTK-13" vertex="1">
          <mxGeometry y="40" width="330" height="80" as="geometry" />
        </mxCell>
        <mxCell id="hdjxA7xfp_-qjUZ7qCTK-15" value="" style="line;strokeWidth=1;fillColor=none;align=left;verticalAlign=middle;spacingTop=-1;spacingLeft=3;spacingRight=3;rotatable=0;labelPosition=right;points=[];portConstraint=eastwest;strokeColor=inherit;" parent="hdjxA7xfp_-qjUZ7qCTK-13" vertex="1">
          <mxGeometry y="120" width="330" height="8" as="geometry" />
        </mxCell>
        <mxCell id="hdjxA7xfp_-qjUZ7qCTK-16" value="+ Transaction(amount : deciaml)&lt;div&gt;+ Executed : bool &amp;lt;&amp;lt;readonly property&amp;gt;&amp;gt;&lt;/div&gt;&lt;div&gt;+ Success : bool &amp;lt;&amp;lt;abstract readonly property&amp;gt;&amp;gt;&lt;/div&gt;&lt;div&gt;+ Reversed : bool&amp;lt;&amp;lt;readonly property&amp;gt;&amp;gt;&lt;/div&gt;&lt;div&gt;+ DataStamp : DateTime&amp;lt;&amp;lt;readonly property&amp;gt;&amp;gt;&lt;/div&gt;&lt;div&gt;&lt;br&gt;&lt;/div&gt;&lt;div&gt;+ Print() &amp;lt;&amp;lt;abstract&amp;gt;&amp;gt;&lt;/div&gt;&lt;div&gt;+ Execute() &amp;lt;&amp;lt;virtual&amp;gt;&amp;gt;&lt;/div&gt;&lt;div&gt;+ Rollback() &amp;lt;&amp;lt;virtual&amp;gt;&amp;gt;&lt;/div&gt;&lt;div&gt;&lt;br&gt;&lt;/div&gt;&lt;div&gt;&lt;br&gt;&lt;/div&gt;" style="text;strokeColor=none;fillColor=none;align=left;verticalAlign=top;spacingLeft=4;spacingRight=4;overflow=hidden;rotatable=0;points=[[0,0.5],[1,0.5]];portConstraint=eastwest;whiteSpace=wrap;html=1;" parent="hdjxA7xfp_-qjUZ7qCTK-13" vertex="1">
          <mxGeometry y="128" width="330" height="152" as="geometry" />
        </mxCell>
        <mxCell id="4W3P1GkmUXlb1_qf7TiF-1" value="DepositTransaction" style="swimlane;fontStyle=1;align=center;verticalAlign=top;childLayout=stackLayout;horizontal=1;startSize=26;horizontalStack=0;resizeParent=1;resizeParentMax=0;resizeLast=0;collapsible=1;marginBottom=0;whiteSpace=wrap;html=1;" parent="1" vertex="1">
          <mxGeometry x="140" y="760" width="370" height="160" as="geometry" />
        </mxCell>
        <mxCell id="4W3P1GkmUXlb1_qf7TiF-2" value="- _account : Account&lt;div&gt;- _success : bool&lt;/div&gt;" style="text;strokeColor=none;fillColor=none;align=left;verticalAlign=top;spacingLeft=4;spacingRight=4;overflow=hidden;rotatable=0;points=[[0,0.5],[1,0.5]];portConstraint=eastwest;whiteSpace=wrap;html=1;" parent="4W3P1GkmUXlb1_qf7TiF-1" vertex="1">
          <mxGeometry y="26" width="370" height="44" as="geometry" />
        </mxCell>
        <mxCell id="4W3P1GkmUXlb1_qf7TiF-3" value="" style="line;strokeWidth=1;fillColor=none;align=left;verticalAlign=middle;spacingTop=-1;spacingLeft=3;spacingRight=3;rotatable=0;labelPosition=right;points=[];portConstraint=eastwest;strokeColor=inherit;" parent="4W3P1GkmUXlb1_qf7TiF-1" vertex="1">
          <mxGeometry y="70" width="370" height="8" as="geometry" />
        </mxCell>
        <mxCell id="4W3P1GkmUXlb1_qf7TiF-4" value="+ DepositTransaction(account : Account, amount : decimal)&lt;div&gt;+ Success : bool &amp;lt;&amp;lt;property&amp;gt;&amp;gt;&lt;/div&gt;&lt;div&gt;+ Print()&lt;/div&gt;&lt;div&gt;+ Execute()&lt;/div&gt;&lt;div&gt;+ Rollback()&lt;/div&gt;" style="text;strokeColor=none;fillColor=none;align=left;verticalAlign=top;spacingLeft=4;spacingRight=4;overflow=hidden;rotatable=0;points=[[0,0.5],[1,0.5]];portConstraint=eastwest;whiteSpace=wrap;html=1;" parent="4W3P1GkmUXlb1_qf7TiF-1" vertex="1">
          <mxGeometry y="78" width="370" height="82" as="geometry" />
        </mxCell>
        <mxCell id="4W3P1GkmUXlb1_qf7TiF-5" value="WithdrawTransaction" style="swimlane;fontStyle=1;align=center;verticalAlign=top;childLayout=stackLayout;horizontal=1;startSize=26;horizontalStack=0;resizeParent=1;resizeParentMax=0;resizeLast=0;collapsible=1;marginBottom=0;whiteSpace=wrap;html=1;" parent="1" vertex="1">
          <mxGeometry x="140" y="1000" width="370" height="160" as="geometry" />
        </mxCell>
        <mxCell id="4W3P1GkmUXlb1_qf7TiF-6" value="- _account : Account&lt;div&gt;- _success : bool&lt;/div&gt;" style="text;strokeColor=none;fillColor=none;align=left;verticalAlign=top;spacingLeft=4;spacingRight=4;overflow=hidden;rotatable=0;points=[[0,0.5],[1,0.5]];portConstraint=eastwest;whiteSpace=wrap;html=1;" parent="4W3P1GkmUXlb1_qf7TiF-5" vertex="1">
          <mxGeometry y="26" width="370" height="44" as="geometry" />
        </mxCell>
        <mxCell id="4W3P1GkmUXlb1_qf7TiF-7" value="" style="line;strokeWidth=1;fillColor=none;align=left;verticalAlign=middle;spacingTop=-1;spacingLeft=3;spacingRight=3;rotatable=0;labelPosition=right;points=[];portConstraint=eastwest;strokeColor=inherit;" parent="4W3P1GkmUXlb1_qf7TiF-5" vertex="1">
          <mxGeometry y="70" width="370" height="8" as="geometry" />
        </mxCell>
        <mxCell id="4W3P1GkmUXlb1_qf7TiF-8" value="+ WithdrawTransaction(account : Account, amount : decimal)&lt;div&gt;+ Success : bool &amp;lt;&amp;lt;property&amp;gt;&amp;gt;&lt;/div&gt;&lt;div&gt;+ Print()&lt;/div&gt;&lt;div&gt;+ Execute()&lt;/div&gt;&lt;div&gt;+ Rollback()&lt;/div&gt;" style="text;strokeColor=none;fillColor=none;align=left;verticalAlign=top;spacingLeft=4;spacingRight=4;overflow=hidden;rotatable=0;points=[[0,0.5],[1,0.5]];portConstraint=eastwest;whiteSpace=wrap;html=1;" parent="4W3P1GkmUXlb1_qf7TiF-5" vertex="1">
          <mxGeometry y="78" width="370" height="82" as="geometry" />
        </mxCell>
        <mxCell id="4W3P1GkmUXlb1_qf7TiF-9" value="TransferTransaction" style="swimlane;fontStyle=1;align=center;verticalAlign=top;childLayout=stackLayout;horizontal=1;startSize=26;horizontalStack=0;resizeParent=1;resizeParentMax=0;resizeLast=0;collapsible=1;marginBottom=0;whiteSpace=wrap;html=1;" parent="1" vertex="1">
          <mxGeometry x="140" y="1250" width="490" height="210" as="geometry" />
        </mxCell>
        <mxCell id="4W3P1GkmUXlb1_qf7TiF-10" value="- _toAccount : Account&lt;div&gt;- _FromAccount : Account&lt;br&gt;&lt;div&gt;- _theDeposit : DepositTransaction&lt;/div&gt;&lt;/div&gt;&lt;div&gt;- _theWithdraw : WithdrawTransaction&lt;/div&gt;&lt;div&gt;- _success : bool&lt;/div&gt;" style="text;strokeColor=none;fillColor=none;align=left;verticalAlign=top;spacingLeft=4;spacingRight=4;overflow=hidden;rotatable=0;points=[[0,0.5],[1,0.5]];portConstraint=eastwest;whiteSpace=wrap;html=1;" parent="4W3P1GkmUXlb1_qf7TiF-9" vertex="1">
          <mxGeometry y="26" width="490" height="84" as="geometry" />
        </mxCell>
        <mxCell id="4W3P1GkmUXlb1_qf7TiF-11" value="" style="line;strokeWidth=1;fillColor=none;align=left;verticalAlign=middle;spacingTop=-1;spacingLeft=3;spacingRight=3;rotatable=0;labelPosition=right;points=[];portConstraint=eastwest;strokeColor=inherit;" parent="4W3P1GkmUXlb1_qf7TiF-9" vertex="1">
          <mxGeometry y="110" width="490" height="8" as="geometry" />
        </mxCell>
        <mxCell id="4W3P1GkmUXlb1_qf7TiF-12" value="+ TransferTransaction(fromAccount : Account, toAccount Account, amount : decimal)&lt;div&gt;+ Success : bool &amp;lt;&amp;lt;property&amp;gt;&amp;gt;&lt;/div&gt;&lt;div&gt;+ Print()&lt;/div&gt;&lt;div&gt;+ Execute()&lt;/div&gt;&lt;div&gt;+ Rollback()&lt;/div&gt;" style="text;strokeColor=none;fillColor=none;align=left;verticalAlign=top;spacingLeft=4;spacingRight=4;overflow=hidden;rotatable=0;points=[[0,0.5],[1,0.5]];portConstraint=eastwest;whiteSpace=wrap;html=1;" parent="4W3P1GkmUXlb1_qf7TiF-9" vertex="1">
          <mxGeometry y="118" width="490" height="92" as="geometry" />
        </mxCell>
        <mxCell id="4W3P1GkmUXlb1_qf7TiF-13" style="edgeStyle=orthogonalEdgeStyle;rounded=0;orthogonalLoop=1;jettySize=auto;html=1;entryX=-0.005;entryY=0.229;entryDx=0;entryDy=0;entryPerimeter=0;endArrow=open;endFill=0;" parent="1" source="hdjxA7xfp_-qjUZ7qCTK-4" target="hdjxA7xfp_-qjUZ7qCTK-8" edge="1">
          <mxGeometry relative="1" as="geometry" />
        </mxCell>
        <mxCell id="4W3P1GkmUXlb1_qf7TiF-14" style="edgeStyle=orthogonalEdgeStyle;rounded=0;orthogonalLoop=1;jettySize=auto;html=1;exitX=1;exitY=0.5;exitDx=0;exitDy=0;entryX=0;entryY=0.306;entryDx=0;entryDy=0;entryPerimeter=0;endArrow=open;endFill=0;" parent="1" source="hdjxA7xfp_-qjUZ7qCTK-4" target="hdjxA7xfp_-qjUZ7qCTK-12" edge="1">
          <mxGeometry relative="1" as="geometry">
            <Array as="points">
              <mxPoint x="1350" y="1044" />
              <mxPoint x="1350" y="1360" />
            </Array>
          </mxGeometry>
        </mxCell>
        <mxCell id="4W3P1GkmUXlb1_qf7TiF-26" value="&lt;font style=&quot;font-size: 16px;&quot;&gt;AddAccount&lt;/font&gt;" style="edgeLabel;html=1;align=center;verticalAlign=middle;resizable=0;points=[];" parent="4W3P1GkmUXlb1_qf7TiF-14" vertex="1" connectable="0">
          <mxGeometry x="-0.0124" y="-4" relative="1" as="geometry">
            <mxPoint as="offset" />
          </mxGeometry>
        </mxCell>
        <mxCell id="4W3P1GkmUXlb1_qf7TiF-15" style="edgeStyle=orthogonalEdgeStyle;rounded=0;orthogonalLoop=1;jettySize=auto;html=1;exitX=0;exitY=0.5;exitDx=0;exitDy=0;entryX=1;entryY=0.5;entryDx=0;entryDy=0;endArrow=blockThin;endFill=1;" parent="1" source="4W3P1GkmUXlb1_qf7TiF-2" target="hdjxA7xfp_-qjUZ7qCTK-14" edge="1">
          <mxGeometry relative="1" as="geometry" />
        </mxCell>
        <mxCell id="4W3P1GkmUXlb1_qf7TiF-16" style="rounded=0;orthogonalLoop=1;jettySize=auto;html=1;exitX=0;exitY=0.5;exitDx=0;exitDy=0;endArrow=block;endFill=1;entryX=0.999;entryY=0.327;entryDx=0;entryDy=0;entryPerimeter=0;" parent="1" source="4W3P1GkmUXlb1_qf7TiF-6" target="hdjxA7xfp_-qjUZ7qCTK-16" edge="1">
          <mxGeometry relative="1" as="geometry">
            <mxPoint x="-100" y="1040" as="targetPoint" />
          </mxGeometry>
        </mxCell>
        <mxCell id="4W3P1GkmUXlb1_qf7TiF-17" style="edgeStyle=orthogonalEdgeStyle;rounded=0;orthogonalLoop=1;jettySize=auto;html=1;entryX=0.996;entryY=0.649;entryDx=0;entryDy=0;entryPerimeter=0;endArrow=blockThin;endFill=1;" parent="1" source="4W3P1GkmUXlb1_qf7TiF-10" target="hdjxA7xfp_-qjUZ7qCTK-16" edge="1">
          <mxGeometry relative="1" as="geometry" />
        </mxCell>
        <mxCell id="4W3P1GkmUXlb1_qf7TiF-19" style="edgeStyle=orthogonalEdgeStyle;rounded=0;orthogonalLoop=1;jettySize=auto;html=1;entryX=0.991;entryY=0.326;entryDx=0;entryDy=0;entryPerimeter=0;endArrow=open;endFill=0;" parent="1" source="hdjxA7xfp_-qjUZ7qCTK-4" target="4W3P1GkmUXlb1_qf7TiF-4" edge="1">
          <mxGeometry relative="1" as="geometry" />
        </mxCell>
        <mxCell id="4W3P1GkmUXlb1_qf7TiF-22" value="&lt;font style=&quot;font-size: 16px;&quot;&gt;DoDeposit&lt;/font&gt;" style="edgeLabel;html=1;align=center;verticalAlign=middle;resizable=0;points=[];" parent="4W3P1GkmUXlb1_qf7TiF-19" vertex="1" connectable="0">
          <mxGeometry x="0.6497" y="1" relative="1" as="geometry">
            <mxPoint as="offset" />
          </mxGeometry>
        </mxCell>
        <mxCell id="4W3P1GkmUXlb1_qf7TiF-20" style="edgeStyle=orthogonalEdgeStyle;rounded=0;orthogonalLoop=1;jettySize=auto;html=1;entryX=1;entryY=0.5;entryDx=0;entryDy=0;endArrow=open;endFill=0;" parent="1" source="hdjxA7xfp_-qjUZ7qCTK-4" target="4W3P1GkmUXlb1_qf7TiF-8" edge="1">
          <mxGeometry relative="1" as="geometry" />
        </mxCell>
        <mxCell id="4W3P1GkmUXlb1_qf7TiF-23" value="&lt;font style=&quot;font-size: 16px;&quot;&gt;DoWithdraw&lt;/font&gt;" style="edgeLabel;html=1;align=center;verticalAlign=middle;resizable=0;points=[];" parent="4W3P1GkmUXlb1_qf7TiF-20" vertex="1" connectable="0">
          <mxGeometry x="0.7553" y="-1" relative="1" as="geometry">
            <mxPoint x="36" y="1" as="offset" />
          </mxGeometry>
        </mxCell>
        <mxCell id="4W3P1GkmUXlb1_qf7TiF-21" style="edgeStyle=orthogonalEdgeStyle;rounded=0;orthogonalLoop=1;jettySize=auto;html=1;exitX=0;exitY=0.5;exitDx=0;exitDy=0;entryX=1.02;entryY=0.13;entryDx=0;entryDy=0;entryPerimeter=0;endArrow=open;endFill=0;" parent="1" source="hdjxA7xfp_-qjUZ7qCTK-4" target="4W3P1GkmUXlb1_qf7TiF-12" edge="1">
          <mxGeometry relative="1" as="geometry" />
        </mxCell>
        <mxCell id="4W3P1GkmUXlb1_qf7TiF-24" value="&lt;font style=&quot;font-size: 16px;&quot;&gt;DoTransfer&lt;/font&gt;" style="edgeLabel;html=1;align=center;verticalAlign=middle;resizable=0;points=[];" parent="4W3P1GkmUXlb1_qf7TiF-21" vertex="1" connectable="0">
          <mxGeometry x="0.7216" relative="1" as="geometry">
            <mxPoint x="-18" as="offset" />
          </mxGeometry>
        </mxCell>
        <mxCell id="4W3P1GkmUXlb1_qf7TiF-25" style="edgeStyle=orthogonalEdgeStyle;rounded=0;orthogonalLoop=1;jettySize=auto;html=1;entryX=0.433;entryY=1.026;entryDx=0;entryDy=0;entryPerimeter=0;endArrow=none;endFill=0;startArrow=diamond;startFill=1;startSize=10;" parent="1" source="hdjxA7xfp_-qjUZ7qCTK-12" target="hdjxA7xfp_-qjUZ7qCTK-16" edge="1">
          <mxGeometry relative="1" as="geometry">
            <mxPoint x="-270" y="1170" as="targetPoint" />
            <Array as="points">
              <mxPoint x="1655" y="1530" />
              <mxPoint x="-270" y="1530" />
            </Array>
          </mxGeometry>
        </mxCell>
      </root>
    </mxGraphModel>
  </diagram>
</mxfile>
